<svg width="370" height="370" viewBox="0 0 370 370" fill="none" xmlns="http://www.w3.org/2000/svg">
<g clip-path="url(#clip0_240201_6)">
<rect width="370" height="370" fill="#B1CCFF"/>
<path d="M-84.7112 144.084C-86.9421 136.672 -88.7896 123.147 -67.447 134.621C-65.3848 135.726 -63.6446 137.433 -62.51 139.548C-59.5585 145.061 -50.1062 156.695 -23.1289 155.75C-19.9705 155.638 -16.8963 156.848 -14.5888 159.091C-5.97206 167.465 13.9906 188.089 11.0928 196.759C8.16434 205.517 11.0775 213.321 13.1397 217.4C13.6073 218.321 16.1908 222.055 16.6355 222.984C19.6176 229.298 30.5955 264.273 21.2198 277.174C11.8441 290.074 10.4795 260.556 2.89004 246.437L-26.0497 192.584C-26.9083 190.982 -28.0966 189.596 -29.5302 188.522L-80.2495 150.518C-82.3577 148.931 -83.9293 146.68 -84.7112 144.084Z" fill="#6FE28F" stroke="#010101" stroke-miterlimit="10"/>
<path d="M95.6041 220.18C95.6041 220.18 27.9656 198.586 70.7504 96.3684C70.7504 96.3684 80.6858 73.2118 73.8093 54.8388C66.9327 36.4737 92.9133 25.2882 92.9133 25.2882C92.9133 25.2882 102.849 -28.2204 140.283 -28.2204C140.283 -28.2204 156.78 -15.7928 143.564 2.74847C130.347 21.2898 95.6041 220.18 95.6041 220.18Z" fill="#6FE28F" stroke="#010101" stroke-miterlimit="10"/>
<path d="M210.827 113.42C210.827 113.42 292.249 76.8979 293.33 5.32886C293.33 5.32886 293.867 -7.06677 262.06 21.1057C230.253 49.2782 182.263 83.0918 163.396 133.812L210.827 113.42Z" fill="#6FE28F" stroke="#010101" stroke-miterlimit="10"/>
<path d="M24.2557 355.13C24.2557 355.13 10.0426 333.311 -25.2524 375.154C-25.2524 375.154 5.81853 394.776 24.2557 355.13Z" fill="#6FE28F" stroke="#010101" stroke-miterlimit="10"/>
<path d="M32.0751 143.371C32.0751 143.371 57.6955 69.5984 0.375561 44.3745C0.375561 44.3745 -32.8113 -1.87447 -46.8864 -3.44495C-60.9614 -5.02344 -60.9614 -2.39525 -60.9614 -2.39525L8.40204 77.9397L32.0751 143.371Z" fill="#6FE28F" stroke="#010101" stroke-miterlimit="10"/>
<path d="M54.8202 469.79C55.0962 455.872 57.7334 436.353 55.2495 420.143C53.0494 405.761 42.4624 375.497 23.2433 357.925L24.2476 355.129C24.2476 355.129 54.1456 387.427 62.2871 417.363C62.2871 417.363 38.315 306.083 22.6453 294.657C21.2424 293.631 20.0695 292.317 19.2186 290.763C9.1069 272.294 -44.2879 175.757 -57.926 171.43C-75.2976 165.926 -83.186 147.489 -83.186 147.489C-83.186 147.489 -69.4559 148.226 -55.2812 153.266C-48.535 155.661 -42.2871 166.038 -35.7938 168.682C2.13835 184.098 -0.744125 212.76 4.76785 220.989C15.8301 237.503 22.4384 271.54 20.5678 279.353C19.5252 283.696 20.6981 285.042 21.9401 285.386C23.3813 285.779 24.6155 286.709 25.2518 288.119C33.5236 306.444 74.1926 407.916 73.173 415.488C73.173 415.488 66.3195 209.779 29.5756 149.892C29.5756 149.892 14.6265 88.0507 -76.9305 -4.39134C-76.9305 -4.39134 -64.4729 -19.367 -32.712 10.5843C-32.712 10.5843 4.03191 77.6342 19.6019 86.0955C19.6019 86.0955 39.5339 112.786 32.0594 143.378C32.0594 143.378 83.7523 283.992 80.6399 343.23C80.6399 343.23 91.8478 224.098 95.5889 220.195C99.3223 216.293 66.9404 196.758 78.1484 163.562C89.3563 130.365 88.7354 166.166 100.572 91.3038C100.572 91.3038 106.797 71.1198 120.504 62.0095C120.504 62.0095 111.159 30.7601 143.548 2.77193C143.548 2.77193 103.408 190.621 102.458 212.655C102.404 213.809 102.297 214.955 102.159 216.101C100.012 234.298 86.6425 349.399 91.2345 352.997C91.2345 352.997 140.804 208.801 147.91 196.109C147.91 196.109 112.953 152.657 183.412 123.202C186.525 121.904 207.078 116.039 210.819 113.435C214.552 110.831 164.73 172.023 156.635 191.55C148.539 211.077 92.4841 366.659 99.9586 375.777C99.9586 375.777 132.448 286.997 161.924 256.925C162.561 256.276 162.453 259.073 163.082 258.48C163.082 258.48 101.208 365.369 101.208 411.586C101.208 411.586 130.478 360.809 140.444 358.854C140.444 358.854 145.051 324.144 157.394 326.836C167.743 329.095 199.35 324.985 199.197 320.514C199.197 320.514 219.282 335.538 155.745 362.957C149.996 365.441 145.641 361.627 140.965 365.793C116.541 387.548 99.9816 429.582 102.074 469.349C102.113 470.03 86.2515 470.927 86.2515 470.927C72.6441 472.009 54.8202 469.79 54.8202 469.79Z" fill="#365948" stroke="#010101" stroke-miterlimit="10"/>
<path d="M162.032 258.56C162.032 258.56 178.024 262.607 196.078 250.74C196.078 250.74 223.676 247.503 241.73 214.619C241.73 214.619 251.013 207.608 241.73 204.916C232.446 202.223 194.284 220.244 188.649 218.297C174.919 213.553 165.129 231.878 162.032 258.56Z" fill="#6FE28F" stroke="#010101" stroke-miterlimit="10"/>
<path d="M140.452 358.838C140.452 358.838 141.993 338.622 149.107 330.345C155.983 322.341 168.372 326.283 172.45 325.498C182.455 323.575 193.371 316.788 197.588 318.991C201.804 321.195 203.912 329.456 196.008 332.204C188.105 334.961 177.38 340.826 173.692 346.883C170.005 352.941 142.031 365.449 140.452 358.838Z" fill="#6FE28F" stroke="#010101" stroke-miterlimit="10"/>
<path d="M153.939 548.471C153.827 548.435 153.732 548.345 153.612 548.318L22.4978 520.65C-6.74406 515.665 -4.7083 510.463 -7.38233 492.397C-9.13339 480.56 -11.9886 417.4 -12.0662 415.678V415.606L-21.3132 341.718C-21.6669 338.896 -24.0303 336.832 -26.7475 336.976C-30.4653 337.175 -33.2946 340.555 -32.9754 344.432L-20.8733 500.916C-19.0618 519.578 -18.6391 527.872 36.9289 538.068C93.6702 548.471 135.299 558.46 135.299 558.46C135.299 558.46 148.66 561.489 152.076 573.822C154.535 582.674 156.182 595.124 155.406 615.309C154.535 638.145 153.741 667.705 153.094 695.58C143.545 695.364 132.495 697.861 126.75 699.132C117.503 701.178 -5.75206 728.206 -13.1272 735.364C-18.113 740.196 -19.8554 749.436 -8.99537 755.558C7.59225 764.915 99.7601 793.989 131.892 804.392C140.259 807.097 151.446 807.836 158.494 802.4C164.799 797.523 168.879 787.886 169.155 777.437C169.354 769.846 169.949 744.766 170.63 715.269C170.751 710.166 170.872 704.929 171.001 699.619C172.2 647.917 173.52 590.058 173.555 588.787C173.555 588.769 173.969 554.024 153.939 548.471ZM126.75 786.543C101.52 777.906 9.51579 748.553 6.01367 746.479C3.21025 744.811 -0.196995 743.468 9.87806 740.665C26.5951 736.022 118.582 715.233 118.582 715.233C121.558 714.485 141.337 710.581 152.758 710.184C151.904 749.436 151.369 781.963 151.369 781.963C151.369 781.963 152.861 795.477 126.75 786.543Z" fill="#FFF354" stroke="#010101" stroke-miterlimit="10"/>
<path d="M-22.6158 325.761C-22.6158 325.761 -29.7235 290.747 -0.27467 290.747C29.1742 290.747 152.3 295.66 152.3 295.66C152.3 295.66 167.62 296.21 170.665 320.614C173.71 345.018 178.428 412.784 178.428 412.784C178.428 412.784 179.446 426.577 166.24 427.641C153.034 428.705 23.714 447.979 23.714 447.979C23.714 447.979 2.77028 455.228 -7.38241 429.76C-17.5437 404.292 -22.6158 325.761 -22.6158 325.761Z" fill="#FFF354" stroke="#010101" stroke-miterlimit="10"/>
<path d="M1.26069 417.319C1.26069 417.319 0.872542 439.613 22.1958 436.431C43.519 433.249 155.501 420.997 155.501 420.997C155.501 420.997 168.146 421.385 169.164 408.647C170.182 395.908 161.159 315.16 161.159 315.16C161.159 315.16 161.504 305.856 147.962 305.613C132.047 305.324 3.77949 301.367 3.77949 301.367C3.77949 301.367 -11.4539 298.184 -10.436 308.795C-9.41818 319.397 1.26069 417.319 1.26069 417.319Z" fill="#FFF354" stroke="#010101" stroke-miterlimit="10"/>
<path d="M207.296 398.867C199.31 384.41 214.085 359.866 240.297 344.048C266.51 328.23 294.233 327.127 302.219 341.584C310.206 356.042 295.43 380.585 269.218 396.403C243.006 412.221 215.282 413.324 207.296 398.867Z" fill="#FFF354" stroke="#010101" stroke-miterlimit="10"/>
<path d="M219.479 378.368C219.841 378.368 247.253 337.105 286.438 340.982C286.438 340.982 281.694 383.894 278.39 388.231L299.824 445.937C300.299 447.172 300.661 448.416 300.911 449.669C302.645 450.255 304.344 450.976 305.983 451.851L326.977 447.425C328.918 447.01 330.979 447.425 332.722 448.434C334.464 449.444 335.896 451.04 336.612 452.987C338.026 456.881 336.016 460.704 332.118 461.533L318.86 464.328L316.911 464.743L320.862 468.772L346.651 495.016C347.393 495.773 347.893 496.639 348.178 497.549C348.868 499.803 348.187 502.318 346.194 504.004C343.382 506.366 339.044 506.176 336.491 503.571L320.879 487.677C320.56 488.624 320.18 489.544 319.749 490.454L334.938 505.915C335.68 506.672 336.189 507.547 336.474 508.458C337.164 510.702 336.473 513.217 334.481 514.894C331.678 517.265 327.339 517.067 324.786 514.471L311.563 501.011C310.856 501.615 310.132 502.165 309.381 502.697L322.69 516.246C323.432 517.004 323.932 517.869 324.217 518.78C324.907 521.025 324.217 523.54 322.233 525.226C319.421 527.588 315.083 527.399 312.538 524.802L296.297 508.277C295.184 508.494 294.071 508.665 292.95 508.782L309.864 525.992C310.606 526.749 311.106 527.615 311.391 528.525C312.081 530.779 311.4 533.294 309.407 534.971C306.595 537.342 302.257 537.153 299.712 534.548L266.091 500.317C265.763 499.992 265.487 499.65 265.254 499.28C265.168 499.19 265.073 499.109 264.978 499.01C258.285 492.203 255.559 483.332 256.68 474.831C252.626 471.919 249.401 467.952 247.555 463.147C247.555 463.147 232.917 440.257 225.198 417.206C219.1 398.986 219.548 379.666 219.479 378.368Z" fill="#FFDECE" stroke="#010101" stroke-miterlimit="10"/>
<path d="M17.7926 396.75L44.5053 410.381L67.9664 481.313C92.9196 501.678 121.107 499.325 155.367 499.325C192.059 499.325 217.729 490.039 240.732 466.582C245.183 462.065 249.522 456.998 253.826 451.373C263.641 429.628 265.349 354.414 266.048 353.91C291.872 334.924 304.224 349.51 304.224 349.51C290.492 233.899 185.452 191.059 185.452 191.059C185.452 191.059 185.409 202.77 169.746 202.129C130.845 200.534 129.12 182.999 126.153 184.144C61.3335 209.125 20.1301 273.755 16.6196 360.41C16.0245 375.402 14.8686 383.534 17.7926 396.75Z" fill="#FFF354" stroke="#010101" stroke-miterlimit="10"/>
<path d="M17.2417 397.054C9.25546 382.596 22.8935 358.739 47.7032 343.767C72.5129 328.796 99.0992 328.379 107.085 342.836C115.072 357.294 101.434 381.151 76.624 396.122C51.8143 411.094 25.228 411.511 17.2417 397.054Z" fill="#FFF354" stroke="#010101" stroke-miterlimit="10"/>
<path d="M121.416 285.8C121.416 285.8 105.666 310.24 107.098 342.667L121.416 285.8Z" fill="#FFF354"/>
<path d="M121.416 285.8C121.416 285.8 105.666 310.24 107.098 342.667" stroke="#010101" stroke-miterlimit="10"/>
<path d="M25.7792 362.6C26.1415 362.6 52.2764 328.568 91.4615 332.94C91.4615 332.94 87.2694 371.047 83.9659 375.943L105.4 441.068C105.874 442.466 106.237 443.863 106.487 445.279C108.22 445.946 109.92 446.757 111.558 447.74L132.553 442.745C134.493 442.277 136.555 442.745 138.297 443.881C140.039 445.017 141.471 446.82 142.187 449.02C143.602 453.419 141.592 457.729 137.693 458.666L124.436 461.821L122.487 462.29L126.437 466.834L152.227 496.458C152.969 497.305 153.469 498.288 153.754 499.325C154.444 501.867 153.762 504.707 151.77 506.609C148.958 509.277 144.619 509.061 142.066 506.122L126.454 488.182C126.135 489.246 125.756 490.282 125.325 491.319L140.514 508.773C141.256 509.62 141.764 510.612 142.049 511.64C142.739 514.173 142.049 517.013 140.057 518.906C137.253 521.574 132.915 521.358 130.362 518.428L117.139 503.238C116.432 503.914 115.707 504.545 114.957 505.14L128.266 520.439C129.008 521.286 129.508 522.268 129.793 523.305C130.483 525.838 129.792 528.679 127.809 530.581C124.997 533.249 120.658 533.033 118.114 530.103L101.872 511.45C100.759 511.703 99.6469 511.883 98.5256 512.018L115.44 531.446C116.182 532.294 116.682 533.276 116.966 534.313C117.657 536.855 116.975 539.695 114.983 541.588C112.171 544.266 107.832 544.049 105.288 541.11L71.6661 502.48C71.3383 502.11 71.0623 501.723 70.8294 501.308C70.7432 501.209 70.6485 501.11 70.5536 501.002C63.8603 493.312 61.1346 483.305 62.2559 473.712C58.202 470.431 54.976 465.951 53.1302 460.532C53.1302 460.532 38.493 434.695 30.7733 408.677C24.6752 388.086 25.6412 364.331 25.7792 362.6Z" fill="#FFDECE" stroke="#010101" stroke-miterlimit="10"/>
<path d="M266.039 353.919C266.039 353.919 267.574 316.83 251.609 291.443L266.039 353.919Z" fill="#FFF354"/>
<path d="M266.039 353.919C266.039 353.919 267.574 316.83 251.609 291.443" stroke="#010101" stroke-miterlimit="10"/>
<path fill-rule="evenodd" clip-rule="evenodd" d="M173.978 25.2394L171.113 25.0847C140.107 25.2523 122.921 52.4723 123.941 84.4288L124.09 95.9829C118.142 96.8698 110.004 100.493 112.784 113.872C114.683 123.01 119.643 126.217 124.491 126.937L125.467 202.286C135.655 208.964 147.379 212.741 159.445 213.231C171.511 213.722 183.488 210.907 194.154 205.076L194.955 204.638C195.037 195.642 194.824 187.458 194.824 187.458C194.824 187.458 224.791 184.326 226.731 153.742C227.669 138.972 227.2 108.401 226.462 80.7363C226.088 66.384 220.48 52.7033 210.753 42.4187C201.027 32.1342 187.897 26.0006 173.978 25.2394Z" fill="#FFDECE"/>
<path d="M171.113 25.0847L171.11 24.5848L171.125 24.5847L171.14 24.5855L171.113 25.0847ZM173.978 25.2394L174.005 24.7401L174.005 24.7402L173.978 25.2394ZM123.941 84.4288L124.441 84.4129L124.441 84.4223L123.941 84.4288ZM124.09 95.9829L124.59 95.9765L124.596 96.4131L124.164 96.4775L124.09 95.9829ZM112.784 113.872L113.274 113.77L112.784 113.872ZM124.491 126.937L124.565 126.443L124.986 126.505L124.991 126.931L124.491 126.937ZM125.467 202.286L125.193 202.704L124.971 202.558L124.967 202.292L125.467 202.286ZM159.445 213.231L159.465 212.732L159.445 213.231ZM194.154 205.076L194.394 205.515L194.394 205.515L194.154 205.076ZM194.955 204.638L195.455 204.642L195.453 204.936L195.195 205.076L194.955 204.638ZM194.824 187.458L194.324 187.471L194.312 187.008L194.772 186.96L194.824 187.458ZM226.731 153.742L226.232 153.71L226.232 153.71L226.731 153.742ZM226.462 80.7363L225.962 80.7497L225.962 80.7493L226.462 80.7363ZM210.753 42.4187L211.117 42.0752L210.753 42.4187ZM171.14 24.5855L174.005 24.7401L173.951 25.7387L171.086 25.584L171.14 24.5855ZM123.441 84.4448C122.928 68.3784 126.99 53.4668 135.116 42.5376C143.251 31.5959 155.444 24.6694 171.11 24.5848L171.115 25.5847C155.776 25.6676 143.873 32.4349 135.918 43.1343C127.954 53.8461 123.933 68.5227 124.44 84.4129L123.441 84.4448ZM123.59 95.9894L123.441 84.4353L124.441 84.4223L124.59 95.9765L123.59 95.9894ZM124.164 96.4775C121.239 96.9135 117.853 98.0138 115.535 100.578C113.24 103.118 111.906 107.191 113.274 113.77L112.294 113.974C110.882 107.175 112.227 102.746 114.793 99.9077C117.336 97.0941 120.993 95.9392 124.017 95.4884L124.164 96.4775ZM113.274 113.77C114.208 118.266 115.884 121.254 117.881 123.204C119.876 125.152 122.225 126.095 124.565 126.443L124.418 127.432C121.909 127.059 119.354 126.039 117.182 123.919C115.012 121.801 113.259 118.617 112.294 113.974L113.274 113.77ZM124.967 202.292L123.991 126.944L124.991 126.931L125.967 202.279L124.967 202.292ZM159.425 213.731C147.267 213.237 135.455 209.432 125.193 202.704L125.741 201.867C135.854 208.497 147.49 212.245 159.465 212.732L159.425 213.731ZM194.394 205.515C183.649 211.389 171.582 214.225 159.425 213.731L159.465 212.732C171.44 213.218 183.327 210.426 193.915 204.637L194.394 205.515ZM195.195 205.076L194.394 205.515L193.914 204.637L194.715 204.199L195.195 205.076ZM194.824 187.458C195.324 187.445 195.324 187.445 195.324 187.445C195.324 187.445 195.324 187.445 195.324 187.445C195.324 187.445 195.324 187.446 195.324 187.446C195.324 187.447 195.324 187.449 195.324 187.451C195.324 187.455 195.324 187.461 195.324 187.469C195.325 187.485 195.325 187.508 195.326 187.539C195.328 187.602 195.33 187.694 195.333 187.815C195.338 188.057 195.346 188.412 195.356 188.867C195.374 189.776 195.398 191.081 195.42 192.667C195.463 195.84 195.496 200.139 195.455 204.642L194.455 204.633C194.496 200.14 194.463 195.849 194.42 192.681C194.399 191.097 194.375 189.794 194.356 188.887C194.347 188.434 194.339 188.08 194.333 187.839C194.33 187.718 194.328 187.626 194.326 187.564C194.326 187.533 194.325 187.51 194.325 187.494C194.324 187.486 194.324 187.48 194.324 187.477C194.324 187.475 194.324 187.473 194.324 187.472C194.324 187.472 194.324 187.471 194.324 187.471C194.324 187.471 194.324 187.471 194.324 187.471C194.324 187.471 194.324 187.471 194.824 187.458ZM227.23 153.774C226.247 169.261 218.153 177.825 210.306 182.498C206.39 184.83 202.538 186.193 199.668 186.973C198.231 187.363 197.038 187.608 196.202 187.756C195.784 187.83 195.455 187.879 195.229 187.91C195.116 187.926 195.029 187.937 194.97 187.944C194.94 187.948 194.917 187.95 194.901 187.952C194.894 187.953 194.887 187.954 194.883 187.954C194.881 187.954 194.879 187.955 194.878 187.955C194.877 187.955 194.877 187.955 194.877 187.955C194.876 187.955 194.876 187.955 194.824 187.458C194.772 186.96 194.772 186.96 194.772 186.96C194.772 186.96 194.772 186.96 194.772 186.96C194.773 186.96 194.774 186.96 194.775 186.96C194.778 186.96 194.783 186.959 194.79 186.958C194.803 186.957 194.823 186.955 194.85 186.951C194.904 186.945 194.985 186.935 195.092 186.92C195.307 186.89 195.623 186.843 196.028 186.771C196.839 186.628 198.002 186.389 199.405 186.008C202.214 185.245 205.976 183.913 209.794 181.639C217.415 177.101 225.274 168.807 226.232 153.71L227.23 153.774ZM226.961 80.723C227.699 108.381 228.17 138.977 227.23 153.774L226.232 153.71C227.168 138.967 226.7 108.421 225.962 80.7497L226.961 80.723ZM211.117 42.0752C220.929 52.4507 226.585 66.2497 226.961 80.7233L225.962 80.7493C225.591 66.5183 220.03 52.9558 210.39 42.7623L211.117 42.0752ZM174.005 24.7402C188.055 25.5084 201.304 31.6993 211.117 42.0752L210.39 42.7623C200.751 32.5691 187.74 26.4927 173.951 25.7387L174.005 24.7402Z" fill="black"/>
<path d="M155.451 88.1847C143.122 83.2892 118.572 79.6992 121.183 91.4484" stroke="#010101"/>
<path d="M167.845 94.6336C167.893 95.7634 168.365 96.8292 169.161 97.604C169.957 98.3788 171.014 98.8015 172.107 98.7821C172.642 98.7966 173.174 98.7002 173.673 98.4987C174.171 98.2972 174.626 97.9946 175.01 97.6087C175.393 97.2228 175.699 96.7614 175.908 96.2515C176.117 95.7417 176.225 95.1938 176.227 94.64C176.18 93.509 175.709 92.4416 174.912 91.6654C174.116 90.8892 173.058 90.4657 171.965 90.485C171.429 90.4705 170.896 90.5671 170.397 90.769C169.899 90.9709 169.444 91.274 169.06 91.6606C168.676 92.0472 168.371 92.5094 168.162 93.02C167.953 93.5306 167.845 94.0792 167.845 94.6336Z" fill="#010101" stroke="#010101"/>
<path d="M207.994 94.6337C208.042 95.7635 208.514 96.8292 209.31 97.604C210.106 98.3788 211.163 98.8015 212.256 98.7821C212.791 98.7966 213.323 98.7002 213.822 98.4987C214.32 98.2972 214.775 97.9946 215.159 97.6087C215.542 97.2228 215.848 96.7614 216.057 96.2516C216.266 95.7418 216.374 95.1939 216.376 94.64C216.328 93.5097 215.856 92.4432 215.06 91.6674C214.264 90.8916 213.207 90.4675 212.114 90.4852C211.578 90.4698 211.045 90.5657 210.545 90.7673C210.046 90.9689 209.591 91.272 209.207 91.6588C208.823 92.0456 208.517 92.5081 208.309 93.0191C208.101 93.53 207.993 94.079 207.994 94.6337Z" fill="#010101" stroke="#010101"/>
<path d="M224.886 89.3515C223.775 90.4535 219.253 87.5072 213.987 87.6328C208.757 87.6209 204.414 90.6785 203.372 89.5893C202.918 89.0668 203.61 87.9692 205.541 86.885C208.144 85.5824 211.181 84.8681 214.266 84.8326C217.352 84.797 220.347 85.4418 222.873 86.6852C224.749 87.7269 225.371 88.8077 224.886 89.3515Z" fill="#010101"/>
<path d="M161.895 89.3515C163.005 90.4535 167.528 87.5072 172.793 87.6328C178.023 87.6209 182.367 90.6785 183.408 89.5893C183.862 89.0668 183.17 87.9692 181.24 86.885C178.636 85.5824 175.599 84.8681 172.514 84.8326C169.428 84.797 166.433 85.4418 163.907 86.6852C162.032 87.7269 161.409 88.8077 161.895 89.3515Z" fill="#010101"/>
<path d="M194.398 139.848C194.398 141.05 196.59 143.112 199.293 143.112C201.997 143.112 204.189 141.05 204.189 139.848" stroke="#010101"/>
<path d="M155.453 83.9417C172.91 81.2158 185.21 83.7794 189.177 85.402V104.386C174.365 107.89 160.522 102.925 155.453 100.005V83.9417Z" fill="white" fill-opacity="0.3" stroke="#010101"/>
<path d="M228.341 82.8534C214.826 80.1275 205.304 82.6911 202.232 84.3137V103.297C213.7 106.802 224.416 101.837 228.341 98.9166V82.8534Z" fill="white" fill-opacity="0.3" stroke="#010101"/>
<path d="M202.232 89.2729C200.346 86.81 195.966 83.3621 189.177 89.2729" stroke="#010101"/>
<path d="M199.029 94.7125C199.936 98.1574 201.64 105.7 201.205 108.311C200.661 111.575 208.82 115.382 203.925 120.278C200.009 124.194 192.502 123.723 189.239 122.997C191.415 121.003 194.243 117.884 188.151 121.366C186.338 121.003 183.364 119.407 185.975 115.926" stroke="#010101"/>
<path d="M213.11 150.195C216.592 131.918 205.133 126.624 198.968 126.261C187.654 127.567 186.275 135.871 187 139.86C187.871 165.099 190.626 157.266 191.896 150.195V139.86C191.896 137.503 193.31 132.897 198.968 133.332C204.626 133.768 207.127 137.865 207.67 139.86C208.033 150.92 209.629 168.471 213.11 150.195Z" fill="#010101"/>
<path d="M155.997 142.579C135.109 137.357 130.25 109.58 130.431 96.3436C122.272 121.909 130.431 155.633 138.59 162.705C146.749 169.776 169.051 185.006 203.32 184.462C237.588 183.918 231.605 138.227 225.077 142.579C219.855 146.06 212.748 152.732 209.847 155.633C203.755 149.976 194.617 153.276 190.809 155.633C187.908 153.458 176.884 147.801 155.997 142.579Z" fill="#010101"/>
</g>
<defs>
<clipPath id="clip0_240201_6">
<rect width="370" height="370" fill="white"/>
</clipPath>
</defs>
</svg>
